{"asset":{"generator":"Khronos glTF Blender I/O v3.5.30","version":"2.0"},"scene":0,"scenes":[{"name":"Scene","nodes":[0,1,2,3]}],"nodes":[{"mesh":0,"name":"alarm_clock_01","rotation":[-0.5,-0.5,-0.5,0.5],"translation":[0,0.064597487449646,0]},{"mesh":1,"name":"houd_hand","rotation":[0.39852431416511536,0.5841047167778015,0.5841047763824463,0.39852431416511536],"translation":[0,0.064597487449646,0]},{"mesh":2,"name":"minute_hand","rotation":[0.6842025518417358,-0.17851309478282928,-0.17851300537586212,0.6842025518417358],"translation":[0,0.064597487449646,0]},{"mesh":3,"name":"second_hand","rotation":[-0.1445818543434143,-0.6921676993370056,-0.1445818692445755,0.6921676397323608],"translation":[0,0.064597487449646,0]}],"materials":[{"doubleSided":true,"name":"alarm_clock_01","normalTexture":{"index":0},"pbrMetallicRoughness":{"baseColorTexture":{"index":1},"metallicRoughnessTexture":{"index":2}}},{"alphaMode":"BLEND","doubleSided":true,"name":"alarm_clock_01_Glass","normalTexture":{"index":3},"pbrMetallicRoughness":{"baseColorTexture":{"index":4},"metallicRoughnessTexture":{"index":5}}}],"meshes":[{"name":"Cylinder.030","primitives":[{"attributes":{"POSITION":0,"TEXCOORD_0":1,"NORMAL":2},"indices":3,"material":0},{"attributes":{"POSITION":4,"TEXCOORD_0":5,"NORMAL":6},"indices":7,"material":1}]},{"name":"Plane.012","primitives":[{"attributes":{"POSITION":8,"TEXCOORD_0":9,"NORMAL":10},"indices":11,"material":0}]},{"name":"Plane.013","primitives":[{"attributes":{"POSITION":12,"TEXCOORD_0":13,"NORMAL":14},"indices":15,"material":0}]},{"name":"Plane.014","primitives":[{"attributes":{"POSITION":16,"TEXCOORD_0":17,"NORMAL":18},"indices":19,"material":0}]}],"textures":[{"sampler":0,"source":0},{"sampler":0,"source":1},{"sampler":0,"source":2},{"sampler":0,"source":3},{"sampler":0,"source":4},{"sampler":0,"source":5}],"images":[{"mimeType":"image/jpeg","name":"alarm_clock_01_nor_gl.png","uri":"data:image/jpeg;base64,"},{"mimeType":"image/jpeg","name":"alarm_clock_01_diff.png","uri":"data:image/jpeg;base64,"},{"mimeType":"image/jpeg","name":"alarm_clock_01_metal.png-alarm_clock_01_rough.png","uri":"data:image/jpeg;base64,"},{"mimeType":"image/jpeg","name":"alarm_clock_01_nor_gl","uri":"data:image/jpeg;base64,"},{"mimeType":"image/jpeg","name":"alarm_clock_01_diff","uri":"data:image/jpeg;base64,"},{"mimeType":"image/jpeg","name":"alarm_clock_01_metal-alarm_clock_01_rough","uri":"data:image/jpeg;base64,"}],"accessors":[{"bufferView":0,"componentType":5126,"count":6397,"max":[0.037977274507284164,0.06582528352737427,0.10833010077476501],"min":[-0.024242693558335304,-0.06582528352737427,-0.06582528352737427],"type":"VEC3"},{"bufferView":1,"componentType":5126,"count":6397,"type":"VEC2"},{"bufferView":2,"componentType":5126,"count":6397,"type":"VEC3"},{"bufferView":3,"componentType":5123,"count":23520,"type":"SCALAR"},{"bufferView":4,"componentType":5126,"count":385,"max":[0.04250587522983551,0.05906614288687706,0.05906614288687706],"min":[0.030722396448254585,-0.05906614288687706,-0.05906613916158676],"type":"VEC3"},{"bufferView":5,"componentType":5126,"count":385,"type":"VEC2"},{"bufferView":6,"componentType":5126,"count":385,"type":"VEC3"},{"bufferView":7,"componentType":5123,"count":2160,"type":"SCALAR"},{"bufferView":8,"componentType":5126,"count":193,"max":[0.004351007752120495,0.0254962295293808,0.0043509965762495995],"min":[-0.04333455115556717,0.02490372210741043,-0.004351010546088219],"type":"VEC3"},{"bufferView":9,"componentType":5126,"count":193,"type":"VEC2"},{"bufferView":10,"componentType":5126,"count":193,"type":"VEC3"},{"bufferView":11,"componentType":5123,"count":600,"type":"SCALAR"},{"bufferView":12,"componentType":5126,"count":147,"max":[0.004351008217781782,0.02489468827843666,0.004351007752120495],"min":[-0.05332012102007866,0.0242923591285944,-0.004351000301539898],"type":"VEC3"},{"bufferView":13,"componentType":5126,"count":147,"type":"VEC2"},{"bufferView":14,"componentType":5126,"count":147,"type":"VEC3"},{"bufferView":15,"componentType":5123,"count":456,"type":"SCALAR"},{"bufferView":16,"componentType":5126,"count":81,"max":[0.024226035922765732,0.05301994830369949,0.0033735933247953653],"min":[0.024067969992756844,-0.0033736019395291805,-0.003373598912730813],"type":"VEC3"},{"bufferView":17,"componentType":5126,"count":81,"type":"VEC2"},{"bufferView":18,"componentType":5126,"count":81,"type":"VEC3"},{"bufferView":19,"componentType":5123,"count":219,"type":"SCALAR"}],"bufferViews":[{"buffer":0,"byteLength":76764,"byteOffset":0,"target":34962},{"buffer":0,"byteLength":51176,"byteOffset":76764,"target":34962},{"buffer":0,"byteLength":76764,"byteOffset":127940,"target":34962},{"buffer":0,"byteLength":47040,"byteOffset":204704,"target":34963},{"buffer":0,"byteLength":4620,"byteOffset":251744,"target":34962},{"buffer":0,"byteLength":3080,"byteOffset":256364,"target":34962},{"buffer":0,"byteLength":4620,"byteOffset":259444,"target":34962},{"buffer":0,"byteLength":4320,"byteOffset":264064,"target":34963},{"buffer":0,"byteLength":2316,"byteOffset":268384,"target":34962},{"buffer":0,"byteLength":1544,"byteOffset":270700,"target":34962},{"buffer":0,"byteLength":2316,"byteOffset":272244,"target":34962},{"buffer":0,"byteLength":1200,"byteOffset":274560,"target":34963},{"buffer":0,"byteLength":1764,"byteOffset":275760,"target":34962},{"buffer":0,"byteLength":1176,"byteOffset":277524,"target":34962},{"buffer":0,"byteLength":1764,"byteOffset":278700,"target":34962},{"buffer":0,"byteLength":912,"byteOffset":280464,"target":34963},{"buffer":0,"byteLength":972,"byteOffset":281376,"target":34962},{"buffer":0,"byteLength":648,"byteOffset":282348,"target":34962},{"buffer":0,"byteLength":972,"byteOffset":282996,"target":34962},{"buffer":0,"byteLength":438,"byteOffset":283968,"target":34963}],"samplers":[{"magFilter":9729,"minFilter":9987}],"buffers":[{"byteLength":284408,"uri":"data:application/octet-stream;base64,"}]}