{"asset":{"generator":"Khronos glTF Blender I/O v1.6.16","version":"2.0"},"scene":0,"scenes":[{"name":"Scene","nodes":[0]}],"nodes":[{"mesh":0,"name":"bar_chair_round_01","rotation":[0,0.7071068286895752,0,0.7071068286895752]}],"materials":[{"doubleSided":true,"name":"Bar Chair","normalTexture":{"index":0},"pbrMetallicRoughness":{"baseColorTexture":{"index":1},"metallicRoughnessTexture":{"index":2}}}],"meshes":[{"name":"Cubo","primitives":[{"attributes":{"POSITION":0,"NORMAL":1,"TEXCOORD_0":2},"indices":3,"material":0}]}],"textures":[{"sampler":0,"source":0},{"sampler":0,"source":1},{"sampler":0,"source":2}],"images":[{"mimeType":"image/jpeg","name":"bar_chair_round_01_nor_gl","uri":"data:image/jpeg;base64,"},{"mimeType":"image/jpeg","name":"bar_chair_round_01_diff","uri":"data:image/jpeg;base64,"},{"mimeType":"image/jpeg","name":"bar_chair_round_01_metal-bar_chair_round_01_rough","uri":"data:image/jpeg;base64,"}],"accessors":[{"bufferView":0,"componentType":5126,"count":29091,"max":[0.24440668523311615,0.7505773305892944,0.2544180750846863],"min":[-0.2415890246629715,0.000028868282242910936,-0.2287321239709854],"type":"VEC3"},{"bufferView":1,"componentType":5126,"count":29091,"type":"VEC3"},{"bufferView":2,"componentType":5126,"count":29091,"type":"VEC2"},{"bufferView":3,"componentType":5123,"count":43119,"type":"SCALAR"}],"bufferViews":[{"buffer":0,"byteLength":349092,"byteOffset":0},{"buffer":0,"byteLength":349092,"byteOffset":349092},{"buffer":0,"byteLength":232728,"byteOffset":698184},{"buffer":0,"byteLength":86238,"byteOffset":930912}],"samplers":[{"magFilter":9729,"minFilter":9987}],"buffers":[{"byteLength":1017152,"uri":"data:application/octet-stream;base64,"}]}