{"asset":{"generator":"Khronos glTF Blender I/O v1.6.16","version":"2.0"},"scene":0,"scenes":[{"name":"Scene","nodes":[0]}],"nodes":[{"mesh":0,"name":"CoffeeTable_01"}],"materials":[{"doubleSided":true,"name":"CoffeeTable_01","normalTexture":{"index":0},"pbrMetallicRoughness":{"baseColorTexture":{"index":1},"metallicRoughnessTexture":{"index":2}}}],"meshes":[{"name":"Mesh","primitives":[{"attributes":{"POSITION":0,"NORMAL":1,"TEXCOORD_0":2,"COLOR_0":3,"COLOR_1":4},"indices":5,"material":0}]}],"textures":[{"sampler":0,"source":0},{"sampler":0,"source":1},{"sampler":0,"source":2}],"images":[{"mimeType":"image/jpeg","name":"CoffeeTable_01_nor_gl","uri":"data:image/jpeg;base64,"},{"mimeType":"image/jpeg","name":"CoffeeTable_01_diff","uri":"data:image/jpeg;base64,"},{"mimeType":"image/jpeg","name":"CoffeeTable_01_metallic-CoffeeTable_01_roughness","uri":"data:image/jpeg;base64,"}],"accessors":[{"bufferView":0,"componentType":5126,"count":6927,"max":[0.7700076103210449,0.5251628756523132,0.4864234924316406],"min":[-0.7700034976005554,0.0019255455117672682,-0.4864235520362854],"type":"VEC3"},{"bufferView":1,"componentType":5126,"count":6927,"type":"VEC3"},{"bufferView":2,"componentType":5126,"count":6927,"type":"VEC2"},{"bufferView":3,"componentType":5123,"count":6927,"normalized":true,"type":"VEC4"},{"bufferView":4,"componentType":5123,"count":6927,"normalized":true,"type":"VEC4"},{"bufferView":5,"componentType":5123,"count":31212,"type":"SCALAR"}],"bufferViews":[{"buffer":0,"byteLength":83124,"byteOffset":0},{"buffer":0,"byteLength":83124,"byteOffset":83124},{"buffer":0,"byteLength":55416,"byteOffset":166248},{"buffer":0,"byteLength":55416,"byteOffset":221664},{"buffer":0,"byteLength":55416,"byteOffset":277080},{"buffer":0,"byteLength":62424,"byteOffset":332496}],"samplers":[{"magFilter":9729,"minFilter":9987}],"buffers":[{"byteLength":394920,"uri":"data:application/octet-stream;base64,"}]}