{"asset":{"generator":"Khronos glTF Blender I/O v1.6.16","version":"2.0"},"scene":0,"scenes":[{"name":"Scene","nodes":[0]}],"nodes":[{"mesh":0,"name":"GreenChair_01"}],"materials":[{"doubleSided":true,"name":"GreenChair_01","normalTexture":{"index":0},"pbrMetallicRoughness":{"baseColorTexture":{"index":1},"metallicRoughnessTexture":{"index":2}}}],"meshes":[{"name":"classic-chair.003","primitives":[{"attributes":{"POSITION":0,"NORMAL":1,"TEXCOORD_0":2},"indices":3,"material":0}]}],"textures":[{"sampler":0,"source":0},{"sampler":0,"source":1},{"sampler":0,"source":2}],"images":[{"mimeType":"image/jpeg","name":"GreenChair_01_nor_gl","uri":"data:image/jpeg;base64,"},{"mimeType":"image/jpeg","name":"GreenChair_01_diff","uri":"data:image/jpeg;base64,"},{"mimeType":"image/jpeg","name":"GreenChair_01_metallic-GreenChair_01_roughness","uri":"data:image/jpeg;base64,"}],"accessors":[{"bufferView":0,"componentType":5126,"count":2934,"max":[0.3360123336315155,1.0579816102981567,0.2863401472568512],"min":[-0.3370821177959442,-0.0005302081117406487,-0.37804722785949707],"type":"VEC3"},{"bufferView":1,"componentType":5126,"count":2934,"type":"VEC3"},{"bufferView":2,"componentType":5126,"count":2934,"type":"VEC2"},{"bufferView":3,"componentType":5123,"count":12639,"type":"SCALAR"}],"bufferViews":[{"buffer":0,"byteLength":35208,"byteOffset":0},{"buffer":0,"byteLength":35208,"byteOffset":35208},{"buffer":0,"byteLength":23472,"byteOffset":70416},{"buffer":0,"byteLength":25278,"byteOffset":93888}],"samplers":[{"magFilter":9729,"minFilter":9987}],"buffers":[{"byteLength":119168,"uri":"data:application/octet-stream;base64,"}]}