{"asset":{"generator":"Khronos glTF Blender I/O v5.1.18","version":"2.0"},"extensionsUsed":["KHR_materials_emissive_strength"],"scene":0,"scenes":[{"name":"Scene","nodes":[0,1,2]}],"nodes":[{"mesh":0,"name":"industrial_pipe_lamp","translation":[0,0,-0.00013954877795185894]},{"mesh":1,"name":"industrial_pipe_lamp_bulb","translation":[0,0.2970314621925354,0.06515161693096161]},{"mesh":2,"name":"industrial_pipe_lamp_switch","translation":[0,0.0821138471364975,0.02393573895096779]}],"materials":[{"doubleSided":true,"emissiveFactor":[1,1,1],"emissiveTexture":{"index":0},"extensions":{"KHR_materials_emissive_strength":{"emissiveStrength":82.4000015258789}},"name":"industrial_pipe_lamp","normalTexture":{"index":1},"pbrMetallicRoughness":{"baseColorTexture":{"index":2},"metallicRoughnessTexture":{"index":3}}},{"alphaMode":"BLEND","doubleSided":true,"emissiveFactor":[1,1,1],"emissiveTexture":{"index":4},"extensions":{"KHR_materials_emissive_strength":{"emissiveStrength":82.4000015258789}},"name":"industrial_pipe_lamp_glass","normalTexture":{"index":5},"pbrMetallicRoughness":{"baseColorFactor":[1,1,1,0.20000000298023224],"baseColorTexture":{"index":6},"metallicRoughnessTexture":{"index":7}}}],"meshes":[{"name":"Vert.002","primitives":[{"attributes":{"POSITION":0,"NORMAL":1,"TEXCOORD_0":2},"indices":3,"material":0}]},{"name":"Roundcube.005","primitives":[{"attributes":{"POSITION":4,"NORMAL":5,"TEXCOORD_0":6},"indices":7,"material":1}]},{"name":"Vert.001","primitives":[{"attributes":{"POSITION":8,"NORMAL":9,"TEXCOORD_0":10},"indices":11,"material":0}]}],"textures":[{"sampler":0,"source":0},{"sampler":0,"source":1},{"sampler":0,"source":2},{"sampler":0,"source":3},{"sampler":0,"source":0},{"sampler":0,"source":1},{"sampler":0,"source":2},{"sampler":0,"source":3}],"images":[{"mimeType":"image/jpeg","name":"industrial_pipe_lamp_emission","uri":"data:image/jpeg;base64,"},{"mimeType":"image/jpeg","name":"industrial_pipe_lamp_nor_gl","uri":"data:image/jpeg;base64,"},{"mimeType":"image/jpeg","name":"industrial_pipe_lamp_diff","uri":"data:image/jpeg;base64,"},{"mimeType":"image/jpeg","name":"industrial_pipe_lamp_metal-industrial_pipe_lamp_rough","uri":"data:image/jpeg;base64,"}],"accessors":[{"bufferView":0,"componentType":5126,"count":6489,"max":[0.09149515628814697,0.364149272441864,0.13559673726558685],"min":[-0.09149519354104996,-8.940696716308594e-8,-0.1264743208885193],"type":"VEC3"},{"bufferView":1,"componentType":5126,"count":6489,"type":"VEC3"},{"bufferView":2,"componentType":5126,"count":6489,"type":"VEC2"},{"bufferView":3,"componentType":5123,"count":22818,"type":"SCALAR"},{"bufferView":4,"componentType":5126,"count":577,"max":[0.02193920686841011,0.0316651426255703,0.026864206418395042],"min":[-0.021939203143119812,-0.026511432603001595,-0.03332897275686264],"type":"VEC3"},{"bufferView":5,"componentType":5126,"count":577,"type":"VEC3"},{"bufferView":6,"componentType":5126,"count":577,"type":"VEC2"},{"bufferView":7,"componentType":5123,"count":2514,"type":"SCALAR"},{"bufferView":8,"componentType":5126,"count":144,"max":[0.0031927754171192646,0.01684585213661194,0.0035980651155114174],"min":[-0.0031927754171192646,-0.0008263506460934877,-0.0035980651155114174],"type":"VEC3"},{"bufferView":9,"componentType":5126,"count":144,"type":"VEC3"},{"bufferView":10,"componentType":5126,"count":144,"type":"VEC2"},{"bufferView":11,"componentType":5123,"count":546,"type":"SCALAR"}],"bufferViews":[{"buffer":0,"byteLength":77868,"byteOffset":0,"target":34962},{"buffer":0,"byteLength":77868,"byteOffset":77868,"target":34962},{"buffer":0,"byteLength":51912,"byteOffset":155736,"target":34962},{"buffer":0,"byteLength":45636,"byteOffset":207648,"target":34963},{"buffer":0,"byteLength":6924,"byteOffset":253284,"target":34962},{"buffer":0,"byteLength":6924,"byteOffset":260208,"target":34962},{"buffer":0,"byteLength":4616,"byteOffset":267132,"target":34962},{"buffer":0,"byteLength":5028,"byteOffset":271748,"target":34963},{"buffer":0,"byteLength":1728,"byteOffset":276776,"target":34962},{"buffer":0,"byteLength":1728,"byteOffset":278504,"target":34962},{"buffer":0,"byteLength":1152,"byteOffset":280232,"target":34962},{"buffer":0,"byteLength":1092,"byteOffset":281384,"target":34963}],"samplers":[{"magFilter":9729,"minFilter":9987}],"buffers":[{"byteLength":282476,"uri":"data:application/octet-stream;base64,"}]}