{"asset":{"generator":"Khronos glTF Blender I/O v4.0.44","version":"2.0"},"scene":0,"scenes":[{"name":"Scene","nodes":[0]}],"nodes":[{"mesh":0,"name":"painted_wooden_sofa"}],"materials":[{"doubleSided":true,"name":"painted_wooden_sofa","normalTexture":{"index":0},"pbrMetallicRoughness":{"baseColorTexture":{"index":1},"metallicFactor":0,"metallicRoughnessTexture":{"index":2}}}],"meshes":[{"name":"sofa.012","primitives":[{"attributes":{"POSITION":0,"NORMAL":1,"TEXCOORD_0":2},"indices":3,"material":0}]}],"textures":[{"sampler":0,"source":0},{"sampler":0,"source":1},{"sampler":0,"source":2}],"images":[{"mimeType":"image/jpeg","name":"painted_wooden_sofa_nor_gl","uri":"data:image/jpeg;base64,"},{"mimeType":"image/jpeg","name":"painted_wooden_sofa_diff","uri":"data:image/jpeg;base64,"},{"mimeType":"image/jpeg","name":"painted_wooden_sofa_rough","uri":"data:image/jpeg;base64,"}],"accessors":[{"bufferView":0,"componentType":5126,"count":4750,"max":[1.2258553504943848,1.2810335159301758,0.37223193049430847],"min":[-1.2258553504943848,0,-0.41508427262306213],"type":"VEC3"},{"bufferView":1,"componentType":5126,"count":4750,"type":"VEC3"},{"bufferView":2,"componentType":5126,"count":4750,"type":"VEC2"},{"bufferView":3,"componentType":5123,"count":17478,"type":"SCALAR"}],"bufferViews":[{"buffer":0,"byteLength":57000,"byteOffset":0,"target":34962},{"buffer":0,"byteLength":57000,"byteOffset":57000,"target":34962},{"buffer":0,"byteLength":38000,"byteOffset":114000,"target":34962},{"buffer":0,"byteLength":34956,"byteOffset":152000,"target":34963}],"samplers":[{"magFilter":9729,"minFilter":9987}],"buffers":[{"byteLength":186956,"uri":"data:application/octet-stream;base64,"}]}