{"asset":{"generator":"Khronos glTF Blender I/O v1.6.16","version":"2.0"},"scene":0,"scenes":[{"name":"Scene","nodes":[0]}],"nodes":[{"mesh":0,"name":"SchoolChair_01"}],"materials":[{"doubleSided":true,"name":"SchoolChair_01","normalTexture":{"index":0},"pbrMetallicRoughness":{"baseColorTexture":{"index":1},"metallicRoughnessTexture":{"index":2}}}],"meshes":[{"name":"Mesh","primitives":[{"attributes":{"POSITION":0,"NORMAL":1,"TEXCOORD_0":2},"indices":3,"material":0}]}],"textures":[{"sampler":0,"source":0},{"sampler":0,"source":1},{"sampler":0,"source":2}],"images":[{"mimeType":"image/jpeg","name":"SchoolChair_01_nor_gl","uri":"data:image/jpeg;base64,"},{"mimeType":"image/jpeg","name":"SchoolChair_01_diff","uri":"data:image/jpeg;base64,"},{"mimeType":"image/jpeg","name":"SchoolChair_01_metallic-SchoolChair_01_roughness","uri":"data:image/jpeg;base64,"}],"accessors":[{"bufferView":0,"componentType":5126,"count":3265,"max":[0.28292661905288696,1.0043269395828247,0.33762744069099426],"min":[-0.28292667865753174,-0.001708600320853293,-0.33762744069099426],"type":"VEC3"},{"bufferView":1,"componentType":5126,"count":3265,"type":"VEC3"},{"bufferView":2,"componentType":5126,"count":3265,"type":"VEC2"},{"bufferView":3,"componentType":5123,"count":15216,"type":"SCALAR"}],"bufferViews":[{"buffer":0,"byteLength":39180,"byteOffset":0},{"buffer":0,"byteLength":39180,"byteOffset":39180},{"buffer":0,"byteLength":26120,"byteOffset":78360},{"buffer":0,"byteLength":30432,"byteOffset":104480}],"samplers":[{"magFilter":9729,"minFilter":9987}],"buffers":[{"byteLength":134912,"uri":"data:application/octet-stream;base64,"}]}