{"asset":{"generator":"Khronos glTF Blender I/O v1.6.16","version":"2.0"},"scene":0,"scenes":[{"name":"Scene","nodes":[0]}],"nodes":[{"mesh":0,"name":"WoodenTable_02"}],"materials":[{"doubleSided":true,"name":"WoodenTable_02","normalTexture":{"index":0},"pbrMetallicRoughness":{"baseColorTexture":{"index":1},"metallicRoughnessTexture":{"index":2}}}],"meshes":[{"name":"Mesh","primitives":[{"attributes":{"POSITION":0,"NORMAL":1,"TEXCOORD_0":2},"indices":3,"material":0}]}],"textures":[{"sampler":0,"source":0},{"sampler":0,"source":1},{"sampler":0,"source":2}],"images":[{"mimeType":"image/jpeg","name":"WoodenTable_02_nor_gl","uri":"data:image/jpeg;base64,"},{"mimeType":"image/jpeg","name":"WoodenTable_02_diff","uri":"data:image/jpeg;base64,"},{"mimeType":"image/jpeg","name":"WoodenTable_02_metallic-WoodenTable_02_roughness","uri":"data:image/jpeg;base64,"}],"accessors":[{"bufferView":0,"componentType":5126,"count":1265,"max":[0.15033823251724243,0.4176570177078247,0.15033821761608124],"min":[-0.15033823251724243,-3.6045939566520246e-8,-0.15033824741840363],"type":"VEC3"},{"bufferView":1,"componentType":5126,"count":1265,"type":"VEC3"},{"bufferView":2,"componentType":5126,"count":1265,"type":"VEC2"},{"bufferView":3,"componentType":5123,"count":4542,"type":"SCALAR"}],"bufferViews":[{"buffer":0,"byteLength":15180,"byteOffset":0},{"buffer":0,"byteLength":15180,"byteOffset":15180},{"buffer":0,"byteLength":10120,"byteOffset":30360},{"buffer":0,"byteLength":9084,"byteOffset":40480}],"samplers":[{"magFilter":9729,"minFilter":9987}],"buffers":[{"byteLength":49564,"uri":"data:application/octet-stream;base64,"}]}